<mxfile host="app.diagrams.net" modified="2021-06-07T02:07:27.819Z" agent="5.0 (X11; Linux x86_64) AppleWebKit/537.36 (KHTML, like Gecko) Chrome/90.0.4430.93 Safari/537.36" etag="lGdE5kwijNNtJQkcketO" version="14.6.13" type="github">
  <diagram id="335xw1yrc9zhnnpfcU2n" name="Page-1">
    <mxGraphModel dx="868" dy="457" grid="1" gridSize="10" guides="1" tooltips="1" connect="1" arrows="1" fold="1" page="1" pageScale="1" pageWidth="827" pageHeight="1169" math="0" shadow="0">
      <root>
        <mxCell id="0" />
        <mxCell id="1" parent="0" />
        <mxCell id="TZRWWHhDYHIt5Pnm0cQl-1" value="" style="shape=process;whiteSpace=wrap;html=1;backgroundOutline=1;size=0.3125;" vertex="1" parent="1">
          <mxGeometry x="240" y="70" width="320" height="240" as="geometry" />
        </mxCell>
      </root>
    </mxGraphModel>
  </diagram>
</mxfile>
